<svg width="20" height="20" viewBox="0 0 20 20" fill="none" xmlns="http://www.w3.org/2000/svg">
<path fill-rule="evenodd" clip-rule="evenodd" d="M10.5 2C5.80753 2 2 5.80753 2 10.5C2 15.1925 5.80753 19 10.5 19C15.1925 19 19 15.1925 19 10.5C19 5.80753 15.1925 2 10.5 2ZM15.2001 6.70012L8.63831 13.2619H11.2064C11.5558 13.2619 11.844 13.5501 11.844 13.8995C11.844 14.2489 11.5558 14.5371 11.2064 14.5371H7.10051C6.75113 14.5371 6.46295 14.2489 6.46295 13.8995V9.79358C6.46295 9.44419 6.75113 9.15602 7.10051 9.15602C7.4499 9.15602 7.73807 9.44419 7.73807 9.79358V12.3617L14.2999 5.79988C14.4274 5.67237 14.5881 5.61371 14.7513 5.61371C14.9119 5.61371 15.0752 5.67237 15.2027 5.79988C15.4475 6.0447 15.4475 6.45275 15.2001 6.70012Z" fill="#333333"/>
</svg>
