<svg width="20" height="20" viewBox="0 0 20 20" fill="none" xmlns="http://www.w3.org/2000/svg">
<path fill-rule="evenodd" clip-rule="evenodd" d="M10.5 2C5.80753 2 2 5.80753 2 10.5C2 15.1925 5.80753 19 10.5 19C15.1925 19 19 15.1925 19 10.5C19 5.80753 15.1925 2 10.5 2ZM14.9629 10.7805C14.9629 11.1299 14.6748 11.4181 14.3254 11.4181C13.976 11.4181 13.6878 11.1299 13.6878 10.7805V8.21242L7.12601 14.7768C6.9985 14.9043 6.83783 14.9629 6.67462 14.9629C6.5114 14.9629 6.35074 14.9043 6.22322 14.7768C5.97585 14.5294 5.97585 14.1214 6.22322 13.8765L12.7876 7.31218H10.2195C9.87009 7.31218 9.58191 7.024 9.58191 6.67462C9.58191 6.32523 9.87009 6.03705 10.2195 6.03705H14.3254C14.6748 6.03705 14.9629 6.32523 14.9629 6.67462V10.7805Z" fill="#333333"/>
</svg>
