<svg width="20" height="20" viewBox="0 0 20 20" fill="none" xmlns="http://www.w3.org/2000/svg">
<path fill-rule="evenodd" clip-rule="evenodd" d="M14.085 10.55L10.55 14.0875C10.305 14.3325 9.91 14.3325 9.665 14.0875C9.42 13.8425 9.42 13.4425 9.665 13.2L12.24 10.625H5.625C5.28 10.625 5 10.345 5 10C5 9.655 5.28 9.375 5.625 9.375H12.24L9.665 6.8C9.42 6.555 9.42 6.1625 9.665 5.9125C9.91 5.6675 10.305 5.6675 10.55 5.9125L14.085 9.45C14.235 9.6 14.2825 9.805 14.2475 10C14.2825 10.195 14.235 10.4 14.085 10.55ZM10 0C4.4775 0 0 4.475 0 10C0 15.525 4.4775 20 10 20C15.5225 20 20 15.525 20 10C20 4.475 15.5225 0 10 0Z" fill="white"/>
</svg>
