<svg width="24" height="24" viewBox="0 0 24 24" fill="none" xmlns="http://www.w3.org/2000/svg">
<rect x="0.5" y="0.5" width="23" height="23" rx="11.5" stroke="#1F2C3D"/>
<path fill-rule="evenodd" clip-rule="evenodd" d="M12 8.26025C11.5515 8.26025 11.169 8.54673 11.0273 8.94772C10.9641 9.12672 10.7677 9.22054 10.5887 9.15727C10.4097 9.09401 10.3159 8.89762 10.3791 8.71862C10.6149 8.05152 11.2511 7.57275 12 7.57275C12.7489 7.57275 13.3851 8.05152 13.6208 8.71863C13.6841 8.89762 13.5903 9.09401 13.4113 9.15727C13.2323 9.22054 13.0359 9.12671 12.9726 8.94772C12.8309 8.54673 12.4485 8.26025 12 8.26025Z" fill="#1F2C3D"/>
<path fill-rule="evenodd" clip-rule="evenodd" d="M7.76025 9.75C7.76025 9.56015 7.91416 9.40625 8.104 9.40625H15.8957C16.0856 9.40625 16.2395 9.56015 16.2395 9.75C16.2395 9.93985 16.0856 10.0937 15.8957 10.0937H8.104C7.91416 10.0937 7.76025 9.93985 7.76025 9.75Z" fill="#1F2C3D"/>
<path fill-rule="evenodd" clip-rule="evenodd" d="M8.84531 10.553C9.03474 10.5404 9.19854 10.6837 9.21117 10.8731L9.42197 14.0352C9.46316 14.653 9.4925 15.0828 9.55693 15.4062C9.61943 15.72 9.70666 15.886 9.83196 16.0032L9.83198 16.0032C9.95729 16.1205 10.1288 16.1965 10.4459 16.238C10.7729 16.2807 11.2038 16.2814 11.8229 16.2814H12.1773C12.7965 16.2814 13.2273 16.2807 13.5543 16.238C13.8715 16.1965 14.0429 16.1205 14.1683 16.0032L14.1683 16.0032C14.2936 15.886 14.3808 15.72 14.4433 15.4062C14.5077 15.0828 14.5371 14.653 14.5783 14.0352L14.7891 10.8731C14.8017 10.6837 14.9655 10.5404 15.1549 10.553C15.3444 10.5657 15.4877 10.7295 15.4751 10.9189L15.2626 14.1051C15.2234 14.693 15.1918 15.1679 15.1176 15.5406C15.0404 15.928 14.9091 16.2516 14.638 16.5053C14.3668 16.7589 14.0352 16.8684 13.6435 16.9197C13.2667 16.9689 12.7907 16.9689 12.2015 16.9689H11.7987C11.2095 16.9689 10.7335 16.9689 10.3568 16.9197C9.96505 16.8684 9.63343 16.7589 9.36228 16.5053C9.09113 16.2516 8.95986 15.928 8.88268 15.5406C8.80844 15.1679 8.77679 14.693 8.7376 14.1051L8.73599 14.081L8.52519 10.9189C8.51256 10.7294 8.65588 10.5656 8.84531 10.553Z" fill="#1F2C3D"/>
<path fill-rule="evenodd" clip-rule="evenodd" d="M10.8198 11.6995C11.0087 11.6806 11.1772 11.8184 11.1961 12.0073L11.4252 14.299C11.4441 14.4879 11.3063 14.6563 11.1174 14.6752C10.9285 14.6941 10.76 14.5563 10.7412 14.3674L10.512 12.0757C10.4931 11.8868 10.6309 11.7184 10.8198 11.6995Z" fill="#1F2C3D"/>
<path fill-rule="evenodd" clip-rule="evenodd" d="M13.1799 11.6995C13.3688 11.7184 13.5066 11.8868 13.4877 12.0757L13.2586 14.3674C13.2397 14.5563 13.0712 14.6941 12.8823 14.6752C12.6934 14.6563 12.5556 14.4879 12.5745 14.299L12.8037 12.0073C12.8225 11.8184 12.991 11.6806 13.1799 11.6995Z" fill="#1F2C3D"/>
</svg>
