<svg width="24" height="24" viewBox="0 0 24 24" fill="none" xmlns="http://www.w3.org/2000/svg">
<rect x="0.5" y="0.5" width="23" height="23" rx="11.5" fill="#EEF0F6"/>
<rect x="0.5" y="0.5" width="23" height="23" rx="11.5" stroke="#D6D6D6"/>
<path d="M17 11.5V16.5C17 16.6326 16.9473 16.7598 16.8536 16.8536C16.7598 16.9473 16.6326 17 16.5 17H11.5C11.3674 17 11.2402 16.9473 11.1464 16.8536C11.0527 16.7598 11 16.6326 11 16.5V11.5C11 11.3674 11.0527 11.2402 11.1464 11.1464C11.2402 11.0527 11.3674 11 11.5 11H16.5C16.6326 11 16.7598 11.0527 16.8536 11.1464C16.9473 11.2402 17 11.3674 17 11.5ZM9.5 13.5H9V9H13.5V9.5C13.5 9.63261 13.5527 9.75979 13.6464 9.85355C13.7402 9.94732 13.8674 10 14 10C14.1326 10 14.2598 9.94732 14.3536 9.85355C14.4473 9.75979 14.5 9.63261 14.5 9.5V8.5C14.5 8.36739 14.4473 8.24021 14.3536 8.14645C14.2598 8.05268 14.1326 8 14 8H8.5C8.36739 8 8.24021 8.05268 8.14645 8.14645C8.05268 8.24021 8 8.36739 8 8.5V14C8 14.1326 8.05268 14.2598 8.14645 14.3536C8.24021 14.4473 8.36739 14.5 8.5 14.5H9.5C9.63261 14.5 9.75979 14.4473 9.85355 14.3536C9.94732 14.2598 10 14.1326 10 14C10 13.8674 9.94732 13.7402 9.85355 13.6464C9.75979 13.5527 9.63261 13.5 9.5 13.5Z" fill="#222E3C"/>
</svg>
