<svg width="74" height="75" viewBox="0 0 74 75" fill="none" xmlns="http://www.w3.org/2000/svg">
<path d="M41.6597 29.903C41.0464 29.903 40.4582 29.6594 40.0245 29.2257C39.5908 28.792 39.3472 28.2038 39.3472 27.5905V7.91113H18.5C16.6601 7.91113 14.8955 8.64203 13.5945 9.94307C12.2934 11.2441 11.5625 13.0087 11.5625 14.8486V61.1911C11.5625 63.0311 12.2934 64.7956 13.5945 66.0966C14.8955 67.3976 16.6601 68.1286 18.5 68.1286H54.4131C56.252 68.1253 58.0146 67.3933 59.3149 66.0929C60.6152 64.7926 61.3473 63.03 61.3506 61.1911V29.903H41.6597Z" fill="#AFAFAF"/>
<path d="M59.9867 25.2778L43.9727 9.26367V10.2234V25.2778H59.0386H59.9867Z" fill="#222E3C"/>
</svg>
