<svg width="44" height="45" viewBox="0 0 44 45" fill="none" xmlns="http://www.w3.org/2000/svg">
<path fill-rule="evenodd" clip-rule="evenodd" d="M37.125 1.36416H30.2995C30.272 1.36416 30.25 1.34766 30.217 1.34766H19.2775C19.25 1.34766 19.2225 1.36416 19.2005 1.36416H9.9C9.8615 1.36416 9.8175 1.36416 9.7735 1.36416C7.2765 1.36416 5.2415 3.34966 5.159 5.83016V5.83566V39.3692C5.313 41.5802 7.1445 43.3127 9.383 43.3127C9.471 43.3127 9.5535 43.3072 9.6415 43.3017H37.125C38.071 43.3017 38.841 42.5317 38.841 41.5857C38.841 40.6397 38.071 39.8697 37.125 39.8697H9.9C9.867 39.8752 9.8285 39.8752 9.79 39.8752C9.185 39.8752 8.679 39.4297 8.591 38.8467V38.8412V37.1582C8.591 37.0372 8.9595 36.6632 9.6195 36.6632L37.125 36.7402C37.8345 36.7402 38.4395 36.3112 38.7035 35.7007L38.709 35.6897L38.72 35.6457C38.797 35.4642 38.841 35.2497 38.8465 35.0297V35.0242V3.09116C38.841 2.13416 38.071 1.36416 37.125 1.36416ZM20.999 4.79616H28.501V14.8007L25.8225 12.6557C25.531 12.4192 25.157 12.2817 24.75 12.2817C24.3375 12.2817 23.958 12.4302 23.661 12.6722L20.999 14.8502V4.79616ZM12.034 33.2202L9.625 33.2147C9.2675 33.2147 8.9265 33.2587 8.591 33.3302V5.83016C8.679 5.24166 9.185 4.79616 9.79 4.79616C9.8285 4.79616 9.867 4.79616 9.9 4.80166H12.0285V33.2202H12.034ZM15.466 33.2312V4.79616H17.556V18.4802C17.556 19.4262 18.326 20.1962 19.272 20.1962C19.6845 20.1962 20.064 20.0477 20.361 19.8057L24.7555 16.2142L29.139 19.7232C29.4305 19.9597 29.8045 20.1027 30.2115 20.1027C31.163 20.1027 31.9275 19.3327 31.9275 18.3867V4.80166H35.3925L35.398 33.2917L15.466 33.2312Z" fill="#2B394A" fill-opacity="0.1"/>
</svg>
