<svg width="20" height="20" viewBox="0 0 20 20" fill="none" xmlns="http://www.w3.org/2000/svg">
<path fill-rule="evenodd" clip-rule="evenodd" d="M17.1675 8.665C16.7075 8.665 16.335 9.0375 16.335 9.4975V14.4975C16.335 14.9575 15.96 15.33 15.5025 15.33H5.5C5.04 15.33 4.6675 14.955 4.6675 14.4975V4.4975C4.6675 4.0375 5.0425 3.665 5.5 3.665H10.5C10.96 3.665 11.3325 3.2925 11.3325 2.8325C11.3325 2.3725 10.96 2 10.5 2H5.5C4.1225 2 3 3.1225 3 4.5V14.5C3 15.8775 4.1225 17 5.5 17H15.5C16.8775 17 18 15.8775 18 14.5V9.4975C18 9.0375 17.6275 8.665 17.1675 8.665Z" fill="#333333"/>
<path fill-rule="evenodd" clip-rule="evenodd" d="M7.48897 9.66776L7.01585 12.0365C6.96275 12.2997 7.04482 12.5726 7.23551 12.7634C7.38758 12.9155 7.59276 13 7.80518 13C7.85828 13 7.91139 12.9952 7.96208 12.9855L10.33 12.5122C10.7983 12.4181 11.2256 12.1911 11.5635 11.853L16.4153 6.99956C16.4177 6.99715 16.4177 6.99715 16.4201 6.99473L17.294 6.12062C18.2353 5.1789 18.2353 3.64801 17.294 2.70629C16.3526 1.76457 14.8222 1.76457 13.8808 2.70629L13.007 3.57557C13.0046 3.57798 13.0046 3.57798 13.0022 3.5804L8.15036 8.43387C7.81 8.77192 7.5831 9.19932 7.48897 9.66776ZM9.06761 9.98408C9.09899 9.82713 9.17382 9.68467 9.28727 9.57359L13.5742 5.28515L14.7112 6.42246L10.4242 10.7109C10.3107 10.8244 10.1683 10.8992 10.0138 10.9306L8.83106 11.1673L9.06761 9.98408Z" fill="#333333"/>
</svg>
