<svg width="24" height="24" viewBox="0 0 24 24" fill="none" xmlns="http://www.w3.org/2000/svg">
<rect x="0.5" y="0.5" width="23" height="23" rx="11.5" fill="#222E3C"/>
<rect x="0.5" y="0.5" width="23" height="23" rx="11.5" stroke="#D6D6D6"/>
<path fill-rule="evenodd" clip-rule="evenodd" d="M15.1574 8.36114C14.6758 7.87962 13.8952 7.87962 13.4136 8.36114L7.5949 14.1799C7.42277 14.352 7.30544 14.5712 7.2577 14.8099L7.01642 16.0163C6.90139 16.5915 7.40849 17.0986 7.98366 16.9836L9.19008 16.7423C9.42877 16.6946 9.648 16.5772 9.82013 16.4051L15.6389 10.5864C16.1204 10.1048 16.1204 9.32416 15.6389 8.84265L15.1574 8.36114ZM12.3156 10.6216L8.17613 14.7611C8.11876 14.8185 8.07965 14.8916 8.06374 14.9711L7.82245 16.1775L9.02887 15.9362C9.10844 15.9203 9.18151 15.8812 9.23889 15.8239L13.3784 11.6844L12.3156 10.6216Z" fill="white"/>
</svg>
