<svg width="23" height="22" viewBox="0 0 23 22" fill="none" xmlns="http://www.w3.org/2000/svg">
<path fill-rule="evenodd" clip-rule="evenodd" d="M18.7125 2.24948H18.0277C17.8517 2.23573 17.6977 2.37323 17.6867 2.54923C17.6867 2.56298 17.6867 2.57948 17.6867 2.59323V3.95998C17.6867 5.46973 16.4602 6.69623 14.9505 6.69623H7.42373C5.91398 6.69623 4.68748 5.46973 4.68748 3.95998V2.59323C4.70123 2.41723 4.56373 2.26323 4.38773 2.25223C4.37398 2.25223 4.35748 2.25223 4.34373 2.25223H3.65898C2.52598 2.25223 1.60748 3.17073 1.60748 4.30373V19.0135C1.60748 20.1465 2.52598 21.065 3.65898 21.065H18.7125C19.8455 21.065 20.764 20.1465 20.764 19.0135V4.30373C20.764 3.17073 19.8455 2.24948 18.7125 2.24948ZM7.42373 16.9592C7.42373 17.336 7.11573 17.644 6.73898 17.644H6.05423C5.67748 17.644 5.36948 17.336 5.36948 16.9592V16.2745C5.36948 15.8977 5.67748 15.5897 6.05423 15.5897H6.73898C7.11573 15.5897 7.42373 15.8977 7.42373 16.2745V16.9592ZM7.42373 13.5382C7.42373 13.915 7.11573 14.223 6.73898 14.223H6.05423C5.67748 14.223 5.36948 13.915 5.36948 13.5382V12.8535C5.36948 12.4767 5.67748 12.1687 6.05423 12.1687H6.73898C7.11573 12.1687 7.42373 12.4767 7.42373 12.8535V13.5382ZM7.42373 10.1172C7.42373 10.494 7.11573 10.802 6.73898 10.802H6.05423C5.67748 10.802 5.36948 10.494 5.36948 10.1172V9.43248C5.36948 9.05573 5.67748 8.74773 6.05423 8.74773H6.73898C7.11573 8.74773 7.42373 9.05573 7.42373 9.43248V10.1172ZM17.002 16.9592C17.002 17.336 16.694 17.644 16.3172 17.644H9.47523C9.09848 17.644 8.79048 17.336 8.79048 16.9592V16.2745C8.79048 15.8977 9.09848 15.5897 9.47523 15.5897H16.3172C16.694 15.5897 17.002 15.8977 17.002 16.2745V16.9592ZM17.002 13.5382C17.002 13.915 16.694 14.223 16.3172 14.223H9.47523C9.09848 14.223 8.79048 13.915 8.79048 13.5382V12.8535C8.79048 12.4767 9.09848 12.1687 9.47523 12.1687H16.3172C16.694 12.1687 17.002 12.4767 17.002 12.8535V13.5382ZM17.002 10.1172C17.002 10.494 16.694 10.802 16.3172 10.802H9.47523C9.09848 10.802 8.79048 10.494 8.79048 10.1172V9.43248C8.79048 9.05573 9.09848 8.74773 9.47523 8.74773H16.3172C16.694 8.74773 17.002 9.05573 17.002 9.43248V10.1172Z" fill="#183028" fill-opacity="0.45"/>
<path fill-rule="evenodd" clip-rule="evenodd" d="M7.42373 4.64475H14.9505C15.3272 4.64475 15.6352 4.33675 15.6352 3.96V2.59325C15.6352 1.46025 14.7167 0.541748 13.5837 0.541748H8.79048C7.65748 0.541748 6.73898 1.46025 6.73898 2.59325V3.96C6.73898 4.33675 7.04698 4.64475 7.42373 4.64475Z" fill="#183028" fill-opacity="0.45"/>
</svg>
