<svg width="18" height="18" viewBox="0 0 18 18" fill="none" xmlns="http://www.w3.org/2000/svg">
<path fill-rule="evenodd" clip-rule="evenodd" d="M9 14C8.60566 14 8.28633 13.6807 8.28633 13.2863V9.71367H4.71367C4.31933 9.71367 4 9.39434 4 9C4 8.60566 4.31933 8.28633 4.71367 8.28633H8.28633V4.71367C8.28633 4.31933 8.60566 4 9 4C9.39434 4 9.71367 4.31933 9.71367 4.71367V8.28633H13.2863C13.6807 8.28633 14 8.60566 14 9C14 9.39434 13.6807 9.71367 13.2863 9.71367H9.71367V13.2863C9.71367 13.6807 9.39434 14 9 14Z" fill="white"/>
</svg>
