<svg width="25" height="24" viewBox="0 0 25 24" fill="none" xmlns="http://www.w3.org/2000/svg">
<path fill-rule="evenodd" clip-rule="evenodd" d="M20.6339 5.99997L17.2199 2.58597C16.9439 2.30997 16.5959 2.12397 16.2209 2.04297V6.99897H21.1769C21.0959 6.62397 20.9099 6.27597 20.6339 5.99997Z" fill="#183028" fill-opacity="0.45"/>
<path fill-rule="evenodd" clip-rule="evenodd" d="M15.72 8.99998C14.892 8.99998 14.22 8.32798 14.22 7.49998V2.00098H10.221C9.11696 2.00098 8.21996 2.89498 8.21996 4.00198V5.99998H6.21896C5.11496 5.99998 4.21796 6.89398 4.21796 8.00098V20.001C4.21796 21.105 5.11196 22.002 6.21896 22.002H15.219C16.323 22.002 17.22 21.108 17.22 20.001V18H19.221C20.325 18 21.222 17.106 21.222 15.999V8.99998H15.72ZM15.219 20.001H6.21896V8.00098H8.21996V16.002C8.21996 17.106 9.11396 18.003 10.221 18.003H15.222V20.001H15.219Z" fill="#183028" fill-opacity="0.45"/>
</svg>
