<svg width="20" height="20" viewBox="0 0 20 20" fill="none" xmlns="http://www.w3.org/2000/svg">
<path fill-rule="evenodd" clip-rule="evenodd" d="M10 15.1436V10.8564C10 10.3832 9.55322 10 9.0015 10C8.44977 10 8 10.3832 8 10.8564V15.1436C8 15.6168 8.44678 16 8.9985 16C9.55022 16 10 15.6168 10 15.1436Z" fill="#DE5A5A"/>
<path fill-rule="evenodd" clip-rule="evenodd" d="M13 15.1436V10.8564C13 10.3832 12.5526 10 12 10C11.4474 10 11 10.3832 11 10.8564V15.1436C11 15.6168 11.4474 16 12 16C12.5526 16 13 15.6168 13 15.1436Z" fill="#DE5A5A"/>
<path fill-rule="evenodd" clip-rule="evenodd" d="M16.1436 8C15.6704 8 15.2872 8.37826 15.2872 8.84537V15.616C15.2872 16.5502 14.5182 17.3093 13.5718 17.3093H8.4282C7.48178 17.3093 6.71282 16.5502 6.71282 15.616V8.84537C6.71282 8.37826 6.32962 8 5.85641 8C5.3832 8 5 8.37826 5 8.84537V15.616C5 17.4819 6.53793 19 8.4282 19H13.5718C15.4621 19 17 17.4819 17 15.616V8.84537C17 8.37826 16.6168 8 16.1436 8Z" fill="#DE5A5A"/>
<path fill-rule="evenodd" clip-rule="evenodd" d="M17.1699 5.33417H13.8343V4.50125C13.8343 3.12306 12.7116 2 11.3339 2H9.66611C8.28838 2 7.16569 3.12306 7.16569 4.50125V5.33417H3.83264C3.37256 5.33417 3 5.70685 3 6.16708C3 6.62731 3.37256 7 3.83264 7H8.00083H13.0017H17.1674C17.6274 7 18 6.62731 18 6.16708C18 5.70685 17.6299 5.33417 17.1699 5.33417Z" fill="#DE5A5A"/>
</svg>
