<svg width="25" height="24" viewBox="0 0 25 24" fill="none" xmlns="http://www.w3.org/2000/svg">
<path fill-rule="evenodd" clip-rule="evenodd" d="M16.86 12C19.344 12 21.36 14.016 21.36 16.5C21.36 18.915 19.458 20.883 17.073 20.994L16.86 21H7.85999C5.37599 21 3.35999 18.984 3.35999 16.5C3.35999 14.085 5.26199 12.117 7.64699 12.006L7.85999 12H16.86ZM7.35899 14.499C6.25499 14.499 5.35799 15.393 5.35799 16.5C5.35799 17.607 6.25199 18.501 7.35899 18.501C8.46599 18.501 9.35999 17.604 9.35999 16.5C9.35999 15.396 8.46599 14.499 7.35899 14.499ZM16.86 2.00098C19.344 2.00098 21.36 4.01698 21.36 6.50098C21.36 8.91598 19.458 10.884 17.073 10.995L16.86 11.001H7.85999C5.37599 11.001 3.35999 8.98498 3.35999 6.50098C3.35999 4.08598 5.26199 2.11798 7.64699 2.00698L7.85999 2.00098H16.86ZM17.361 4.49998C16.257 4.49998 15.36 5.39398 15.36 6.50098C15.36 7.60798 16.254 8.50198 17.361 8.50198C18.465 8.50198 19.362 7.60798 19.362 6.50098C19.362 5.39398 18.465 4.49998 17.361 4.49998Z" fill="#183028" fill-opacity="0.45"/>
</svg>
