<svg width="24" height="24" viewBox="0 0 24 24" fill="none" xmlns="http://www.w3.org/2000/svg">
<path fill-rule="evenodd" clip-rule="evenodd" d="M12.0015 22C17.4619 22 22 17.47 22 12C22 6.5388 17.4502 2 11.9898 2C6.52057 2 2 6.5388 2 12C2.00293 17.47 6.53228 22 12.0015 22ZM7.20861 10.9107C7.20861 8.84334 8.90382 7.14495 10.9826 7.14495C13.0496 7.14495 14.7478 8.84041 14.7478 10.9107C14.7478 11.7247 14.493 12.4685 14.0509 13.0776L16.5015 15.5286C16.6391 15.6662 16.727 15.8507 16.727 16.0381C16.727 16.451 16.443 16.735 16.0594 16.735C15.834 16.735 15.6466 16.6676 15.4622 16.4802L13.0408 14.0586C12.4524 14.451 11.738 14.6852 10.9826 14.6852C8.90382 14.6852 7.20861 12.9898 7.20861 10.9107ZM8.29483 10.9107C8.29483 12.3807 9.50988 13.5959 10.9797 13.5959C12.4319 13.5959 13.6469 12.3807 13.6469 10.9107C13.6469 9.45827 12.4319 8.24305 10.9797 8.24305C9.51281 8.24597 8.29483 9.4612 8.29483 10.9107Z" fill="#222E3C"/>
</svg>
