<svg width="20" height="20" viewBox="0 0 20 20" fill="none" xmlns="http://www.w3.org/2000/svg">
<path fill-rule="evenodd" clip-rule="evenodd" d="M16.8148 9.73532C16.8148 9.73532 17.1848 4.74032 12.6073 4.17032C8.68484 3.77032 7.48984 7.41532 7.48984 7.41532C7.48984 7.41532 6.30984 6.28032 4.70484 7.20782C3.26984 8.09282 3.52484 9.71532 3.52484 9.71532C3.52484 9.71532 0.339844 10.3328 0.339844 13.5803C0.409844 16.8253 3.79984 16.8578 3.79984 16.8578H9.14234V13.4278H7.42734L10.2848 10.5703L13.1423 13.4278H11.4273V16.8553H16.2648C16.2648 16.8553 19.4198 16.8578 19.8623 13.7728C20.0748 10.4003 16.8148 9.73532 16.8148 9.73532Z" fill="#BFC4CE"/>
</svg>
