<svg width="25" height="24" viewBox="0 0 25 24" fill="none" xmlns="http://www.w3.org/2000/svg">
<path fill-rule="evenodd" clip-rule="evenodd" d="M22.567 16.221C22.153 15.384 21.568 14.637 20.821 13.998C20.17 13.44 19.426 12.99 18.622 12.66C19.603 11.745 20.218 10.443 20.218 8.99995C20.218 7.66495 19.699 6.40795 18.754 5.46595C17.809 4.52095 16.555 4.00195 15.217 4.00195C14.125 4.00195 13.075 4.35895 12.217 5.00395C11.38 4.37395 10.342 4.00195 9.21695 4.00195C6.45995 4.00195 4.21595 6.24595 4.21595 9.00295C4.21595 10.446 4.83095 11.748 5.81195 12.663C5.00795 12.993 4.26395 13.443 3.61295 14.001C2.86595 14.64 2.28095 15.39 1.86695 16.224C1.43195 17.103 1.21295 18.036 1.21295 19.002C1.21295 19.554 1.65995 20.001 2.21195 20.001H16.213H22.213C22.765 20.001 23.212 19.554 23.212 19.002C23.221 18.036 22.999 17.1 22.567 16.221ZM15.22 5.99995C16.021 5.99995 16.774 6.31195 17.341 6.87895C17.908 7.44595 18.22 8.19895 18.22 8.99995C18.22 10.653 16.873 12 15.22 12C14.749 12 14.098 11.871 13.528 11.535C13.966 10.791 14.221 9.92395 14.221 8.99995C14.221 8.09395 13.978 7.24195 13.555 6.50695C14.041 6.17995 14.62 5.99995 15.22 5.99995ZM17.14 18C17.041 17.388 16.849 16.794 16.567 16.221C16.153 15.384 15.568 14.637 14.821 13.998C14.815 13.992 14.806 13.986 14.8 13.98C14.947 13.992 15.085 13.998 15.22 13.998C18.118 13.998 20.542 15.72 21.1 17.997L17.14 18Z" fill="#183028"/>
</svg>
