<svg width="24" height="24" viewBox="0 0 24 24" fill="none" xmlns="http://www.w3.org/2000/svg">
<path fill-rule="evenodd" clip-rule="evenodd" d="M19.4522 5.99213L16.0079 2.54782C15.7294 2.26937 15.3783 2.08172 15 2V7H20C19.9183 6.62167 19.7306 6.27058 19.4522 5.99213Z" fill="#222E3C"/>
<path fill-rule="evenodd" clip-rule="evenodd" d="M14.4993 8.99865C13.6715 8.99865 12.9996 8.32668 12.9996 7.49872V2H9.00159C7.89785 2 7.00106 2.89396 7.00106 4.0009V5.9988H5.00053C3.89679 5.9988 3 6.89276 3 7.9997V19.9991C3 21.103 3.89379 22 5.00053 22H13.9984C15.1022 22 15.9989 21.106 15.9989 19.9991V17.9982H17.9995C19.1032 17.9982 20 17.1042 20 15.9973V8.99865H14.4993ZM13.9984 19.9991H5.00053V7.9997H7.00106V16.0003C7.00106 17.1042 7.89485 18.0012 9.00159 18.0012H14.0014V19.9991H13.9984Z" fill="#222E3C"/>
</svg>
