<svg width="22" height="22" viewBox="0 0 22 22" fill="none" xmlns="http://www.w3.org/2000/svg">
    <path fill-rule="evenodd" clip-rule="evenodd"
          d="M16.8858 5.33342L11.6693 0.11613C11.4218 -0.131375 11 0.0430037 11 0.391761V5.58937C11 5.81437 11.1828 6 11.4106 6H16.6074C16.9561 6 17.1305 5.57812 16.8858 5.33342Z"
          fill="#183028"/>
    <path fill-rule="evenodd" clip-rule="evenodd"
          d="M16.9985 9.94868V7C16.9985 6.7955 16.8378 6.63245 16.6423 6.63245H10.9268C10.7286 6.63245 10.5706 6.46664 10.5706 6.2649V0.367548C10.5706 0.165811 10.4099 0 10.2117 0H2.35622C2.1607 0 2 0.165811 2 0.367548V20.6325C2 20.837 2.1607 21 2.35622 21H9.76709C9.90369 21 10.0269 20.9199 10.0885 20.7927C10.1474 20.6656 10.134 20.5164 10.051 20.4058C9.23679 19.3198 8.80022 18.0209 8.78683 16.6447C8.76005 13.8674 10.5251 11.3387 13.1123 10.5705C14.2586 10.2306 15.4451 10.2333 16.5432 10.5594C16.7334 10.6147 16.9316 10.5041 16.9851 10.3079C17.0066 10.2333 16.9985 9.99842 16.9985 9.94868Z"
          fill="#183028"/>
    <path fill-rule="evenodd" clip-rule="evenodd"
          d="M19.9544 15.7821C19.6409 13.3341 17.6637 11.3564 15.2163 11.0456C11.625 10.589 8.58912 13.6256 9.04561 17.2179C9.35634 19.6659 11.3335 21.6435 13.7837 21.9543C17.375 22.4109 20.4109 19.3771 19.9544 15.7821ZM17.3255 16.7585L15.8598 18.2246C15.7883 18.2961 15.6948 18.3319 15.6013 18.3319C15.5078 18.3319 15.4143 18.2961 15.3428 18.2246C15.1998 18.0816 15.1998 17.8505 15.3428 17.7047L15.8708 17.1766C15.9863 17.0611 15.9038 16.8631 15.7416 16.8631H11.933C11.7295 16.8631 11.5672 16.698 11.5672 16.4972C11.5672 16.2964 11.7322 16.1314 11.933 16.1314H15.7388C15.9011 16.1314 15.9836 15.9334 15.8681 15.8178L15.3401 15.2897C15.1971 15.1467 15.1971 14.9157 15.3401 14.7699C15.4831 14.6268 15.7141 14.6268 15.8598 14.7699L17.3255 16.2359C17.4685 16.3845 17.4685 16.6155 17.3255 16.7585Z"
          fill="#183028"/>
</svg>
