<svg width="22" height="22" viewBox="0 0 22 22" fill="none" xmlns="http://www.w3.org/2000/svg">
    <path fill-rule="evenodd" clip-rule="evenodd"
          d="M17.9653 3.00096H17.2861C17.1115 2.98707 16.9588 3.12591 16.9479 3.30363C16.9479 3.31752 16.9479 3.33418 16.9479 3.34806V4.72814C16.9479 6.25262 15.7314 7.49109 14.234 7.49109H6.76873C5.27132 7.49109 4.05484 6.25262 4.05484 4.72814V3.34806C4.06848 3.17034 3.9321 3.01484 3.75754 3.00373C3.7439 3.00373 3.72753 3.00373 3.7139 3.00373H3.03474C1.911 3.00373 1 3.93119 1 5.07525V19.9285C1 21.0725 1.911 22 3.03474 22H17.9653C19.089 22 20 21.0725 20 19.9285V5.07525C20 3.93119 19.089 3.00096 17.9653 3.00096ZM6.76873 17.8542C6.76873 18.2346 6.46325 18.5456 6.08958 18.5456H5.41042C5.03675 18.5456 4.73127 18.2346 4.73127 17.8542V17.1628C4.73127 16.7823 5.03675 16.4713 5.41042 16.4713H6.08958C6.46325 16.4713 6.76873 16.7823 6.76873 17.1628V17.8542ZM6.76873 14.3998C6.76873 14.7803 6.46325 15.0913 6.08958 15.0913H5.41042C5.03675 15.0913 4.73127 14.7803 4.73127 14.3998V13.7084C4.73127 13.328 5.03675 13.017 5.41042 13.017H6.08958C6.46325 13.017 6.76873 13.328 6.76873 13.7084V14.3998ZM6.76873 10.9455C6.76873 11.3259 6.46325 11.6369 6.08958 11.6369H5.41042C5.03675 11.6369 4.73127 11.3259 4.73127 10.9455V10.254C4.73127 9.8736 5.03675 9.5626 5.41042 9.5626H6.08958C6.46325 9.5626 6.76873 9.8736 6.76873 10.254V10.9455ZM16.2687 17.8542C16.2687 18.2346 15.9633 18.5456 15.5896 18.5456H8.80347C8.4298 18.5456 8.12432 18.2346 8.12432 17.8542V17.1628C8.12432 16.7823 8.4298 16.4713 8.80347 16.4713H15.5896C15.9633 16.4713 16.2687 16.7823 16.2687 17.1628V17.8542ZM16.2687 14.3998C16.2687 14.7803 15.9633 15.0913 15.5896 15.0913H8.80347C8.4298 15.0913 8.12432 14.7803 8.12432 14.3998V13.7084C8.12432 13.328 8.4298 13.017 8.80347 13.017H15.5896C15.9633 13.017 16.2687 13.328 16.2687 13.7084V14.3998ZM16.2687 10.9455C16.2687 11.3259 15.9633 11.6369 15.5896 11.6369H8.80347C8.4298 11.6369 8.12432 11.3259 8.12432 10.9455V10.254C8.12432 9.8736 8.4298 9.5626 8.80347 9.5626H15.5896C15.9633 9.5626 16.2687 9.8736 16.2687 10.254V10.9455Z"
          fill="#183028"/>
    <path fill-rule="evenodd" clip-rule="evenodd"
          d="M6.69274 5H14.3073C14.6884 5 15 4.69973 15 4.33244V3C15 1.89544 14.0708 1 12.9246 1H8.07543C6.92921 1 6 1.89544 6 3V4.33244C6 4.69973 6.31159 5 6.69274 5Z"
          fill="#183028"/>
</svg>
