<svg width="22" height="22" viewBox="0 0 22 22" fill="none" xmlns="http://www.w3.org/2000/svg">
    <path fill-rule="evenodd" clip-rule="evenodd"
          d="M7.4709 4.99352C7.50702 4.99894 7.54315 5.00165 7.57669 4.99894H14.3653C14.7136 4.99894 15 4.6982 15 4.33245V2.99947C15 1.92116 14.1872 1.03793 13.1603 1H8.84616C7.81149 1.02167 6.99098 1.91304 7.00646 2.99947V4.33245C6.96002 4.64673 7.16902 4.94204 7.4709 4.99352Z"
          fill="#183028"/>
    <path fill-rule="evenodd" clip-rule="evenodd"
          d="M18.1586 3.00092C18.1344 3.00092 18.1103 3.00092 18.0834 3.00092H17.4226C17.2533 2.98752 17.1056 3.12156 17.0921 3.29045C17.0921 3.30386 17.0921 3.31994 17.0921 3.33067V4.64963C17.0921 6.07583 15.9451 7.23663 14.5159 7.25272H7.48306C6.05392 7.23663 4.90685 6.07315 4.90685 4.64963V3.33067C4.92029 3.16177 4.78597 3.01433 4.61673 3.00092C4.6033 3.00092 4.58718 3.00092 4.57643 3.00092H3.91559C2.83837 3.02237 1.98411 3.90436 2.00022 4.97938V19.0215C2.00022 20.0885 2.84642 20.9625 3.91559 21H18.0834C19.1606 20.9786 20.0149 20.0966 19.9988 19.0215V4.97938C20.0364 3.92313 19.2143 3.04114 18.1586 3.00092ZM17.1915 18.7561C17.1539 18.9572 16.9981 19.1154 16.7939 19.1529H13.0975C12.8665 19.1529 12.7671 18.8902 12.9981 18.724L14.1882 17.472L11.8752 15.1638H5.20235C5.02505 15.1504 4.88536 15.011 4.87193 14.8341V13.3516C4.88536 13.1747 5.02505 13.0353 5.20235 13.0219H11.8752L14.1533 10.7137L12.9632 9.52606C12.7993 9.32768 12.8638 9.06496 13.0948 9.06496H16.7617C16.9632 9.10249 17.1217 9.25798 17.1593 9.46172V13.121C17.1593 13.3516 16.896 13.4508 16.7295 13.2202L15.5394 12.0675L13.4924 14.1076L15.5394 16.1182L16.7295 14.9306C16.9283 14.7671 17.1915 14.8314 17.1915 15.062V18.7561Z"
          fill="#183028"/>
</svg>
