<svg width="24" height="24" viewBox="0 0 24 24" fill="none" xmlns="http://www.w3.org/2000/svg">
<path fill-rule="evenodd" clip-rule="evenodd" d="M14.279 2.15297C13.91 2 13.439 2 12.5 2C11.561 2 11.093 2 10.721 2.15297C10.226 2.35693 9.83597 2.74385 9.62897 3.23575C9.53597 3.46071 9.49997 3.71866 9.48497 4.09958C9.46397 4.65747 9.17597 5.17337 8.68996 5.45231C8.20396 5.73125 7.60695 5.72226 7.11195 5.46131C6.77294 5.28434 6.52694 5.18536 6.28694 5.15237C5.75593 5.08338 5.22193 5.22435 4.79592 5.54829C4.47792 5.79124 4.24392 6.19316 3.77291 7C3.30491 7.80684 3.06791 8.21176 3.01691 8.60468C2.94791 9.12957 3.09191 9.66347 3.41591 10.0834C3.56591 10.2753 3.77291 10.4373 4.09692 10.6383C4.57392 10.9352 4.87993 11.4421 4.87993 12C4.87993 12.5579 4.57392 13.0648 4.09692 13.3617C3.77291 13.5627 3.56291 13.7247 3.41591 13.9166C3.09191 14.3365 2.94791 14.8704 3.01691 15.3953C3.06791 15.7882 3.30491 16.1932 3.77291 17C4.24092 17.8068 4.47792 18.2118 4.79592 18.4517C5.21893 18.7756 5.75593 18.9166 6.28694 18.8476C6.52994 18.8146 6.77294 18.7187 7.11195 18.5387C7.60995 18.2777 8.20396 18.2687 8.68996 18.5477C9.17597 18.8266 9.46397 19.3425 9.48497 19.9004C9.49997 20.2783 9.53597 20.5393 9.62897 20.7642C9.83297 21.2531 10.226 21.6431 10.721 21.847C11.09 22 11.561 22 12.5 22C13.439 22 13.907 22 14.279 21.847C14.774 21.6431 15.164 21.2561 15.371 20.7642C15.464 20.5393 15.5 20.2813 15.515 19.9004C15.536 19.3425 15.824 18.8266 16.31 18.5477C16.796 18.2687 17.393 18.2777 17.8881 18.5387C18.2271 18.7157 18.4731 18.8146 18.7131 18.8476C19.2441 18.9166 19.7781 18.7756 20.2041 18.4517C20.5221 18.2088 20.7561 17.8068 21.2271 17C21.6951 16.1932 21.9321 15.7882 21.9831 15.3953C22.0521 14.8704 21.9081 14.3365 21.5841 13.9166C21.4341 13.7247 21.2271 13.5627 20.9031 13.3617C20.4261 13.0648 20.1201 12.5579 20.1201 12C20.1201 11.4421 20.4261 10.9352 20.9031 10.6383C21.2271 10.4373 21.4371 10.2753 21.5841 10.0834C21.9081 9.66347 22.0521 9.12957 21.9831 8.60468C21.9321 8.21176 21.6951 7.80684 21.2271 7C20.7591 6.19316 20.5221 5.78824 20.2041 5.54829C19.7811 5.22435 19.2441 5.08338 18.7131 5.15237C18.4701 5.18536 18.2271 5.28134 17.8881 5.46131C17.39 5.72226 16.796 5.73125 16.31 5.45231C15.824 5.17337 15.536 4.65747 15.515 4.09958C15.5 3.72166 15.464 3.46071 15.371 3.23575C15.164 2.74685 14.771 2.35693 14.279 2.15297ZM12.5 14.9994C14.168 14.9994 15.524 13.6557 15.524 12C15.524 10.3443 14.171 9.0006 12.5 9.0006C10.829 9.0006 9.47597 10.3443 9.47597 12C9.47597 13.6557 10.829 14.9994 12.5 14.9994Z" fill="white"/>
</svg>
