<svg width="24" height="24" viewBox="0 0 24 24" fill="none" xmlns="http://www.w3.org/2000/svg">
<path fill-rule="evenodd" clip-rule="evenodd" d="M16.1978 2H7.81119C4.17019 2 2 4.16922 2 7.80858V16.1794C2 19.8308 4.17019 22 7.81419 22H16.1888C19.8298 22 22 19.8308 22 16.1914V7.80858C22.009 4.16922 19.8388 2 16.1978 2ZM16.4169 9.83078C15.8076 11.571 14.1657 12.7411 12.3257 12.7411C12.3167 12.7411 12.3167 12.7411 12.3047 12.7411L10.2425 12.7321C10.2425 12.7321 10.2425 12.7321 10.2335 12.7321C9.4741 12.7321 8.81374 13.2421 8.61263 13.9712C9.50412 14.2502 10.1525 15.0813 10.1525 16.0624C10.1525 17.2715 9.16193 18.2616 7.95227 18.2616C6.7426 18.2616 5.75206 17.2715 5.75206 16.0624C5.75206 15.1713 6.29236 14.4032 7.05177 14.0612V9.69877C6.29236 9.39874 5.75206 8.65767 5.75206 7.79958C5.75206 6.66847 6.67356 5.75038 7.80218 5.75038C8.9308 5.75038 9.85231 6.67147 9.85231 7.79958C9.85231 8.66967 9.31201 9.39874 8.5526 9.69877V11.718C9.04186 11.4089 9.62418 11.2289 10.2335 11.2289H10.2425L12.3047 11.2379C13.4843 11.2769 14.5349 10.5179 14.9551 9.41674C14.4658 9.0357 14.1447 8.45665 14.1447 7.79658C14.1447 6.66547 15.0662 5.74738 16.1948 5.74738C17.3264 5.74738 18.2449 6.66847 18.2449 7.79658C18.2569 8.85869 17.4465 9.71977 16.4169 9.83078Z" fill="white"/>
</svg>
