<svg width="24" height="24" viewBox="0 0 24 24" fill="none" xmlns="http://www.w3.org/2000/svg">
<path fill-rule="evenodd" clip-rule="evenodd" d="M19.9994 22H14.9994C13.8956 22 12.9988 21.103 12.9988 19.9991V13.0004C12.9988 11.8965 13.8956 10.9995 14.9994 10.9995H19.9994C21.1032 10.9995 22 11.8965 22 13.0004V19.9991C21.997 21.103 21.1002 22 19.9994 22ZM9.0006 22H4.0006C2.89682 22 2 21.103 2 19.9991V16.9992C2 15.8953 2.89682 14.9983 4.0006 14.9983H9.0006C10.1044 14.9983 11.0012 15.8953 11.0012 16.9992V19.9991C11.0012 21.103 10.1044 22 9.0006 22ZM9.0006 13.0004H4.0006C2.89682 13.0004 2 12.1035 2 10.9995V4.0009C2 2.89696 2.89682 2 4.0006 2H9.0006C10.1044 2 11.0012 2.89696 11.0012 4.0009V10.9995C11.0012 12.1035 10.1044 13.0004 9.0006 13.0004ZM19.9994 9.00165H14.9994C13.8956 9.00165 12.9988 8.1047 12.9988 7.00075V4.0009C12.9988 2.89696 13.8956 2 14.9994 2H19.9994C21.1032 2 22 2.89696 22 4.0009V7.00075C21.997 8.1047 21.1002 9.00165 19.9994 9.00165ZM14.9994 4.0009V7.00075H19.9994V4.0009H14.9994Z" fill="white"/>
</svg>
