<svg width="24" height="24" viewBox="0 0 24 24" fill="none" xmlns="http://www.w3.org/2000/svg">
    <path fill-rule="evenodd" clip-rule="evenodd"
          d="M20.9969 18.7507V4.49925C20.9969 3.11911 19.844 2 18.4222 2H6.57473C5.15291 2 4 3.11911 4 4.49925V19.5008C4 20.8809 5.15291 22 6.57473 22H20.2273C20.6538 22 21 21.664 21 21.2499C21 20.8359 20.6538 20.4998 20.2273 20.4998H6.57473C6.006 20.4998 5.54545 20.0528 5.54545 19.5008H20.2273C20.6507 19.5008 20.9969 19.1647 20.9969 18.7507ZM17.3929 6.9985C17.3929 7.55056 16.9324 7.9976 16.3636 7.9976H8.12018C7.55146 7.9976 7.09091 7.55056 7.09091 6.9985V5.9994C7.09091 5.44735 7.55146 5.0003 8.12018 5.0003H16.3636C16.9324 5.0003 17.3929 5.44735 17.3929 5.9994V6.9985Z"/>
</svg>
