<svg width="24" height="24" viewBox="0 0 24 24" fill="none" xmlns="http://www.w3.org/2000/svg">
<path fill-rule="evenodd" clip-rule="evenodd" d="M19.47 18C21.0489 16.2539 22 13.9816 22 11.5C22 9.0184 21.0457 6.74609 19.47 5L15 9.26058C15.4552 9.90041 15.722 10.6718 15.722 11.5C15.722 12.3312 15.4552 13.1026 15 13.7394L19.47 18Z" fill="white"/>
<path fill-rule="evenodd" clip-rule="evenodd" d="M18 19.47C16.2539 21.0489 13.9816 22 11.5 22C9.0184 22 6.74609 21.0457 5 19.47L9.25759 15C9.89742 15.4552 10.6688 15.722 11.497 15.722C12.3282 15.722 13.0996 15.4552 13.7364 15L18 19.47Z" fill="white"/>
<path fill-rule="evenodd" clip-rule="evenodd" d="M4.53004 18L9 13.7424C8.54484 13.1026 8.27803 12.3312 8.27803 11.503C8.27803 10.6718 8.54484 9.90041 9 9.26357L4.53004 5C2.95112 6.74609 2 9.0184 2 11.5C2 13.9816 2.95112 16.2539 4.53004 18Z" fill="white"/>
<path fill-rule="evenodd" clip-rule="evenodd" d="M11.5 8.27803C10.6688 8.27803 9.89742 8.54484 9.26058 9L5 4.53004C6.74609 2.95112 9.0184 2 11.5 2C13.9816 2 16.2539 2.95426 18 4.53004L13.7394 9C13.1026 8.54484 12.3312 8.27803 11.5 8.27803Z" fill="white"/>
</svg>
