<svg width="16" height="16" viewBox="0 0 16 16" fill="none" xmlns="http://www.w3.org/2000/svg">
<path fill-rule="evenodd" clip-rule="evenodd" d="M8.22988 2C8.59069 2 8.88288 2.29805 8.88288 2.66611C8.88288 3.00817 8.62991 3.29022 8.30635 3.32822L8.22988 3.33222H4.96096C4.62564 3.33222 4.34914 3.59027 4.31188 3.92032L4.30796 4.00033V12.0017C4.30796 12.3437 4.56092 12.6258 4.88448 12.6638L4.96096 12.6678H7.9024C8.26321 12.6678 8.5554 12.9658 8.5554 13.3339C8.5554 13.6759 8.30243 13.958 7.97888 13.996L7.9024 14H4.96096C3.91577 14 3.06275 13.1679 3.00392 12.1177L3 11.9997V4.00033C3 2.93416 3.81576 2.06401 4.84526 2.004L4.96096 2H8.22988ZM11.9596 5.64261L13.8088 7.52892C14.0637 7.78897 14.0637 8.21104 13.8088 8.47108L11.9596 10.3574C11.7047 10.6174 11.2909 10.6174 11.036 10.3574C10.7811 10.0973 10.7811 9.67528 11.036 9.41524L11.7694 8.66711H8.22988C7.86906 8.66711 7.57688 8.36906 7.57688 8.001C7.57688 7.63294 7.86906 7.33489 8.22988 7.33489H11.7694L11.036 6.58676C10.7811 6.32672 10.7811 5.90465 11.036 5.64461C11.2909 5.38256 11.7047 5.38256 11.9596 5.64261Z" fill="white"/>
</svg>
