<svg width="24" height="24" viewBox="0 0 24 24" fill="none" xmlns="http://www.w3.org/2000/svg">
<path fill-rule="evenodd" clip-rule="evenodd" d="M2.27303 6.3652C2 6.89927 2 7.60137 2 8.99957V15.0004C2 16.4016 2 17.1007 2.27303 17.6348C2.51305 18.1059 2.89709 18.4869 3.36514 18.727C3.89919 19 4.60126 19 5.9994 19H18.0006C19.4017 19 20.1008 19 20.6349 18.727C21.1059 18.4869 21.4869 18.1059 21.727 17.6348C22 17.1007 22 16.3986 22 15.0004V8.99957C22 7.59837 22 6.89927 21.727 6.3652C21.4869 5.89413 21.1059 5.51307 20.6349 5.27304C20.1008 5 19.3987 5 18.0006 5H6.0024C4.60126 5 3.90219 5 3.36814 5.27304C2.89709 5.51007 2.51305 5.89413 2.27303 6.3652ZM4.64926 6.99829H19.3567C19.6328 6.99829 19.8578 7.22032 19.8578 7.49636C19.8578 7.66438 19.7738 7.8204 19.6358 7.91342L12.5581 12.6481C12.222 12.8731 11.781 12.8731 11.4449 12.6481L4.37024 7.91642C4.13921 7.76339 4.07921 7.45135 4.23222 7.22332C4.32523 7.0823 4.48125 6.99829 4.64926 6.99829Z" fill="white"/>
</svg>
