<svg width="25" height="25" viewBox="0 0 25 25" fill="none" xmlns="http://www.w3.org/2000/svg">
<path fill-rule="evenodd" clip-rule="evenodd" d="M17.3526 4H7.64739C5.6334 4 4 5.6334 4 7.64739V17.3526C4 19.3666 5.6334 21 7.64739 21H17.3526C19.3666 21 21 19.3666 21 17.3526V7.64739C21 5.63022 19.3666 4 17.3526 4ZM8.58619 9.1444H9.1444V8.58619C9.1444 8.27854 9.39496 8.02799 9.70261 8.02799H13.055C13.3627 8.02799 13.6132 8.27854 13.6132 8.58619V9.1444H16.4075C16.7151 9.1444 16.9657 9.39496 16.9657 9.70261C16.9688 10.0134 16.7183 10.264 16.4075 10.264H13.6164V10.8222C13.6164 11.1299 13.3659 11.3804 13.0582 11.3804H9.70261C9.39496 11.3804 9.1444 11.1299 9.1444 10.8222V10.264H8.58619C8.27854 10.264 8.02798 10.0134 8.02798 9.70578C8.02798 9.39813 8.27854 9.1444 8.58619 9.1444ZM16.4106 15.8524H15.8524V16.4106C15.8524 16.7183 15.6019 16.9688 15.2942 16.9688H11.9386C11.631 16.9688 11.3804 16.7183 11.3804 16.4106V15.8524H8.58619C8.27854 15.8524 8.02798 15.6019 8.02798 15.2942C8.02798 14.9866 8.27854 14.736 8.58619 14.736H11.3804V14.1746C11.3804 13.867 11.631 13.6164 11.9386 13.6164H15.291C15.5987 13.6164 15.8493 13.867 15.8493 14.1746V14.7328H16.4075C16.7151 14.7328 16.9657 14.9834 16.9657 15.291C16.9657 15.5987 16.7215 15.8524 16.4106 15.8524Z" fill="white"/>
</svg>
