<svg width="24" height="24" viewBox="0 0 24 24" fill="none" xmlns="http://www.w3.org/2000/svg">
<path fill-rule="evenodd" clip-rule="evenodd" d="M19 8C20.656 8 22 6.656 22 5C22 3.344 20.656 2 19 2C17.344 2 16 3.344 16 5C16 6.656 17.344 8 19 8Z" fill="white"/>
<path fill-rule="evenodd" clip-rule="evenodd" d="M21 10.4021V16.4815C21 16.6224 20.991 16.7604 20.979 16.8923C20.97 17.0123 20.958 17.1233 20.94 17.2433C20.931 17.3632 20.91 17.4832 20.889 17.5942C20.541 20.0085 18.9992 21.5381 16.5905 21.889C16.4795 21.91 16.3595 21.928 16.2395 21.94C16.1195 21.961 16.0085 21.97 15.8885 21.979C15.7596 21.988 15.6186 22 15.4776 22H7.52242C7.38143 22 7.24345 21.991 7.11146 21.979C6.99147 21.97 6.88049 21.958 6.7605 21.94C6.64051 21.931 6.52052 21.91 6.40954 21.889C4.00079 21.5381 2.46195 20.0085 2.11099 17.5882C2.08999 17.4772 2.07199 17.3572 2.05999 17.2373C2.039 17.1173 2.03 17.0063 2.021 16.8863C2.012 16.7574 2 16.6164 2 16.4755V8.52155C2 8.38058 2.009 8.24262 2.021 8.11065C2.03 7.99069 2.042 7.87972 2.05999 7.75975C2.06899 7.63978 2.08999 7.51981 2.11099 7.40884C2.46195 4.98848 4.00079 3.45888 6.40954 3.11097C6.52052 3.08998 6.64051 3.07198 6.7605 3.05998C6.88049 3.03899 6.99147 3.02999 7.11146 3.02099C7.24045 3.012 7.38143 3 7.52242 3H13.6028C14.2417 3 14.7037 3.57885 14.5837 4.19968C14.5837 4.22068 14.5747 4.23867 14.5747 4.25967C14.5537 4.35864 14.5447 4.46062 14.5237 4.56859C14.4847 4.98848 14.5027 5.43836 14.5927 5.89724C14.6227 6.01721 14.6437 6.11618 14.6827 6.22715C14.7637 6.55706 14.8926 6.86598 15.0636 7.15691C15.1236 7.27687 15.2046 7.39684 15.2736 7.50781C15.6036 7.98769 16.0145 8.39858 16.4945 8.72849C16.6055 8.79747 16.7254 8.87845 16.8454 8.93844C17.1364 9.10939 17.4454 9.23836 17.7753 9.31934C17.8863 9.35833 17.9853 9.37932 18.1053 9.40931C18.5643 9.49929 19.0142 9.52028 19.4342 9.4783C19.5452 9.4573 19.6441 9.4483 19.7431 9.42731C19.7641 9.42731 19.7821 9.41831 19.8031 9.41831C20.4211 9.30134 21 9.76022 21 10.4021Z" fill="white"/>
</svg>
