<svg width="24" height="24" viewBox="0 0 24 24" fill="none" xmlns="http://www.w3.org/2000/svg">
<path fill-rule="evenodd" clip-rule="evenodd" d="M23.2333 19.48H22.4667V9.6C22.4667 8.76096 21.7797 8.08 20.9333 8.08H14.8V3.52C14.8 2.68096 14.1131 2 13.2667 2H4.06667C3.22027 2 2.53333 2.68096 2.53333 3.52V19.48H1.76667C1.34347 19.48 1 19.8205 1 20.24C1 20.6595 1.34347 21 1.76667 21H23.2333C23.6565 21 24 20.6595 24 20.24C24 19.8205 23.6565 19.48 23.2333 19.48ZM11.7333 12.64C11.7333 13.0595 11.3899 13.4 10.9667 13.4H7.9C7.4768 13.4 7.13333 13.0595 7.13333 12.64C7.13333 12.2205 7.4768 11.88 7.9 11.88H10.9667C11.3899 11.88 11.7333 12.2205 11.7333 12.64ZM6.36667 5.8H9.43333C9.85653 5.8 10.2 6.14048 10.2 6.56C10.2 6.97952 9.85653 7.32 9.43333 7.32H6.36667C5.94347 7.32 5.6 6.97952 5.6 6.56C5.6 6.14048 5.94347 5.8 6.36667 5.8ZM6.36667 15.68H9.43333C9.85653 15.68 10.2 16.0205 10.2 16.44C10.2 16.8595 9.85653 17.2 9.43333 17.2H6.36667C5.94347 17.2 5.6 16.8595 5.6 16.44C5.6 16.0205 5.94347 15.68 6.36667 15.68ZM14.8 9.6H20.9333V19.48H14.8V9.6ZM19.4 16.44C19.4 16.8595 19.0565 17.2 18.6333 17.2H17.1C16.6768 17.2 16.3333 16.8595 16.3333 16.44C16.3333 16.0205 16.6768 15.68 17.1 15.68H18.6333C19.0565 15.68 19.4 16.0205 19.4 16.44ZM16.3333 12.64C16.3333 12.2205 16.6768 11.88 17.1 11.88H18.6333C19.0565 11.88 19.4 12.2205 19.4 12.64C19.4 13.0595 19.0565 13.4 18.6333 13.4H17.1C16.6768 13.4 16.3333 13.0626 16.3333 12.64Z" fill="white"/>
</svg>
