<svg width="24" height="24" viewBox="0 0 24 24" fill="none" xmlns="http://www.w3.org/2000/svg">
<path fill-rule="evenodd" clip-rule="evenodd" d="M16.5 11.9995C18.984 11.9995 21 14.0156 21 16.4998C21 18.9149 19.098 20.883 16.713 20.994L16.5 21H7.5C5.016 21 3 18.9839 3 16.4998C3 14.0846 4.902 12.1165 7.287 12.0055L7.5 11.9995H16.5ZM6.999 14.4987C5.895 14.4987 4.998 15.3927 4.998 16.4998C4.998 17.6068 5.892 18.5009 6.999 18.5009C8.106 18.5009 9 17.6038 9 16.4998C9 15.3957 8.106 14.4987 6.999 14.4987ZM16.5 2C18.984 2 21 4.01611 21 6.50024C21 8.91536 19.098 10.8835 16.713 10.9945L16.5 11.0005H7.5C5.016 11.0005 3 8.98437 3 6.50024C3 4.08511 4.902 2.11701 7.287 2.006L7.5 2H16.5ZM17.001 4.49913C15.897 4.49913 15 5.39318 15 6.50024C15 7.6073 15.894 8.50134 17.001 8.50134C18.105 8.50134 19.002 7.6073 19.002 6.50024C19.002 5.39318 18.105 4.49913 17.001 4.49913Z" fill="white"/>
</svg>
