<svg width="25" height="24" viewBox="0 0 25 24" fill="none" xmlns="http://www.w3.org/2000/svg">
<path d="M7 2H3V6H7V2Z" fill="white"/>
<path d="M7 10H3V14H7V10Z" fill="white"/>
<path d="M7 17H3V21H7V17Z" fill="white"/>
<path d="M14 2H10V6H14V2Z" fill="white"/>
<path d="M14 10H10V14H14V10Z" fill="white"/>
<path d="M14 17H10V21H14V17Z" fill="white"/>
<path d="M22 10H18V14H22V10Z" fill="white"/>
<path d="M22 17H18V21H22V17Z" fill="white"/>
<path d="M23.425 6.47454C24.7918 5.10771 24.7917 2.8917 23.4248 1.52496C22.0579 0.158217 19.8417 0.15829 18.4749 1.52513C17.108 2.89196 17.1081 5.10796 18.475 6.47471C19.842 7.84145 22.0581 7.84138 23.425 6.47454Z" fill="white"/>
</svg>
