<svg width="13" height="13" viewBox="0 0 13 13" fill="none" xmlns="http://www.w3.org/2000/svg">
<path fill-rule="evenodd" clip-rule="evenodd" d="M7.71722 0.0994301C7.46475 -2.78894e-08 7.14248 0 6.5 0C5.85752 0 5.53731 -2.78894e-08 5.28278 0.0994301C4.94409 0.232004 4.67724 0.483503 4.53561 0.803239C4.47198 0.94946 4.44735 1.11713 4.43708 1.36473C4.42272 1.72735 4.22566 2.06269 3.89313 2.244C3.5606 2.42531 3.15212 2.41947 2.81344 2.24985C2.58149 2.13482 2.41317 2.07049 2.24896 2.04904C1.88564 2.0042 1.52027 2.09583 1.22879 2.30639C1.01121 2.46431 0.851103 2.72556 0.528836 3.25C0.208623 3.77445 0.0464631 4.03764 0.0115681 4.29304C-0.0356429 4.63422 0.0628844 4.98125 0.284571 5.2542C0.387203 5.37897 0.528836 5.48425 0.750523 5.61488C1.07689 5.80789 1.28626 6.13737 1.28626 6.5C1.28626 6.86263 1.07689 7.19211 0.750523 7.38512C0.528836 7.51575 0.385151 7.62103 0.284571 7.7458C0.0628844 8.01875 -0.0356429 8.36578 0.0115681 8.70696C0.0464631 8.96236 0.208623 9.22555 0.528836 9.75C0.84905 10.2744 1.01121 10.5376 1.22879 10.6936C1.51821 10.9042 1.88564 10.9958 2.24896 10.951C2.41522 10.9295 2.58149 10.8671 2.81344 10.7502C3.15418 10.5805 3.5606 10.5747 3.89313 10.756C4.22566 10.9373 4.42272 11.2726 4.43708 11.6353C4.44735 11.8809 4.47198 12.0505 4.53561 12.1968C4.67519 12.5145 4.94409 12.768 5.28278 12.9006C5.53525 13 5.85752 13 6.5 13C7.14248 13 7.46269 13 7.71722 12.9006C8.05591 12.768 8.32275 12.5165 8.46439 12.1968C8.52802 12.0505 8.55265 11.8829 8.56291 11.6353C8.57728 11.2726 8.77434 10.9373 9.10687 10.756C9.4394 10.5747 9.84787 10.5805 10.1866 10.7502C10.4185 10.8652 10.5868 10.9295 10.751 10.951C11.1144 10.9958 11.4797 10.9042 11.7712 10.6936C11.9888 10.5357 12.1489 10.2744 12.4712 9.75C12.7914 9.22555 12.9535 8.96236 12.9884 8.70696C13.0356 8.36578 12.9371 8.01875 12.7154 7.7458C12.6128 7.62103 12.4712 7.51575 12.2495 7.38512C11.9231 7.19211 11.7137 6.86263 11.7137 6.5C11.7137 6.13737 11.9231 5.80789 12.2495 5.61488C12.4712 5.48425 12.6148 5.37897 12.7154 5.2542C12.9371 4.98125 13.0356 4.63422 12.9884 4.29304C12.9535 4.03764 12.7914 3.77445 12.4712 3.25C12.1509 2.72556 11.9888 2.46236 11.7712 2.30639C11.4818 2.09583 11.1144 2.0042 10.751 2.04904C10.5848 2.07049 10.4185 2.13287 10.1866 2.24985C9.84582 2.41947 9.4394 2.42531 9.10687 2.244C8.77434 2.06269 8.57728 1.72735 8.56291 1.36473C8.55265 1.11908 8.52802 0.94946 8.46439 0.803239C8.32275 0.485453 8.05386 0.232004 7.71722 0.0994301ZM6.5 8.44961C7.64127 8.44961 8.56907 7.57618 8.56907 6.5C8.56907 5.42381 7.64333 4.55039 6.5 4.55039C5.35667 4.55039 4.43093 5.42381 4.43093 6.5C4.43093 7.57618 5.35667 8.44961 6.5 8.44961Z" fill="white"/>
</svg>
