<svg width="24" height="24" viewBox="0 0 24 24" fill="none" xmlns="http://www.w3.org/2000/svg">
<path fill-rule="evenodd" clip-rule="evenodd" d="M22.354 16.219C21.94 15.382 21.355 14.635 20.608 13.996C19.957 13.438 19.213 12.988 18.409 12.658C19.39 11.743 20.005 10.441 20.005 8.998C20.005 7.663 19.486 6.406 18.541 5.464C17.596 4.519 16.342 4 15.004 4C13.912 4 12.862 4.357 12.004 5.002C11.167 4.372 10.129 4 9.004 4C6.247 4 4.003 6.244 4.003 9.001C4.003 10.444 4.618 11.746 5.599 12.661C4.795 12.991 4.051 13.441 3.4 13.999C2.653 14.638 2.068 15.388 1.654 16.222C1.219 17.101 1 18.034 1 19C1 19.552 1.447 19.999 1.999 19.999H16H22C22.552 19.999 22.999 19.552 22.999 19C23.008 18.034 22.786 17.098 22.354 16.219ZM15.007 5.998C15.808 5.998 16.561 6.31 17.128 6.877C17.695 7.444 18.007 8.197 18.007 8.998C18.007 10.651 16.66 11.998 15.007 11.998C14.536 11.998 13.885 11.869 13.315 11.533C13.753 10.789 14.008 9.922 14.008 8.998C14.008 8.092 13.765 7.24 13.342 6.505C13.828 6.178 14.407 5.998 15.007 5.998ZM16.927 17.998C16.828 17.386 16.636 16.792 16.354 16.219C15.94 15.382 15.355 14.635 14.608 13.996C14.602 13.99 14.593 13.984 14.587 13.978C14.734 13.99 14.872 13.996 15.007 13.996C17.905 13.996 20.329 15.718 20.887 17.995L16.927 17.998Z" fill="white"/>
</svg>
